<?xml version="1.0" encoding="utf-8"?>
<!-- Generator: Adobe Illustrator 25.4.1, SVG Export Plug-In . SVG Version: 6.00 Build 0)  -->
<svg version="1.0"
	 id="svg22" inkscape:export-filename="C:\Users\suitedoalex\sites\blaze-logo-0.png" inkscape:export-xdpi="561.73712" inkscape:export-ydpi="561.73712" inkscape:version="0.92.4 (5da689c313, 2019-01-14)" sodipodi:docname="blaze-logo.svg" xmlns:cc="http://creativecommons.org/ns#" xmlns:dc="http://purl.org/dc/elements/1.1/" xmlns:inkscape="http://www.inkscape.org/namespaces/inkscape" xmlns:rdf="http://www.w3.org/1999/02/22-rdf-syntax-ns#" xmlns:sodipodi="http://sodipodi.sourceforge.net/DTD/sodipodi-0.dtd" xmlns:svg="http://www.w3.org/2000/svg"
	 xmlns="http://www.w3.org/2000/svg" xmlns:xlink="http://www.w3.org/1999/xlink" x="0px" y="0px" viewBox="0 0 678 474"
	 style="enable-background:new 0 0 678 474;" xml:space="preserve">
<style type="text/css">
	.st0{fill-rule:evenodd;clip-rule:evenodd;fill:#F12C4C;}
	.st1{fill-rule:evenodd;clip-rule:evenodd;}
</style>
<path id="path2" inkscape:connector-curvature="0" inkscape:export-filename="C:\Users\suitedoalex\sites\blaze-logo-4.png" inkscape:export-xdpi="66.520226" inkscape:export-ydpi="66.520226" class="st0" d="
	M181,275.5l-39.7,39.7c-4.2,4.2-9.9,6-15.3,5.4c-4.1-0.4-8.1-2.2-11.3-5.4l-39.7-39.7c-3.7-3.7-5.5-8.5-5.5-13.3
	c0-4.8,1.8-9.6,5.5-13.3l39.7-39.7c4.1-4.1,9.6-5.9,14.9-5.4c4.3,0.4,8.4,2.2,11.7,5.4l39.7,39.7c3.7,3.7,5.5,8.5,5.5,13.3
	C186.5,267,184.7,271.8,181,275.5L181,275.5z M203,248.2L203,248.2l-0.2-0.5c-0.1-0.4-0.3-0.8-0.4-1.2l-24.1-64.9l-14.5,20.8
	L128,134.2c0,0-56.5,84-70.8,105.5l0,0c-10.5,15.7-8.9,37.2,5,51.1l37.1,37.1c15.8,15.8,41.4,15.8,57.2,0l37.1-37.1
	C205.2,279.3,208.3,262.6,203,248.2L203,248.2z"/>
<path id="path4" inkscape:connector-curvature="0" inkscape:export-filename="C:\Users\suitedoalex\sites\blaze-logo-4.png" inkscape:export-xdpi="66.520226" inkscape:export-ydpi="66.520226" class="st0" d="
	M128,223.7c-6.5,0-11.7,5.2-11.7,11.7c0,6.5,5.2,11.7,11.7,11.7c6.5,0,11.7-5.2,11.7-11.7C139.7,228.9,134.4,223.7,128,223.7z"/>
<path id="path6" inkscape:connector-curvature="0" inkscape:export-filename="C:\Users\suitedoalex\sites\blaze-logo-4.png" inkscape:export-xdpi="66.520226" inkscape:export-ydpi="66.520226" class="st0" d="
	M128,277.2c-6.5,0-11.7,5.2-11.7,11.7s5.2,11.7,11.7,11.7c6.5,0,11.7-5.2,11.7-11.7C139.7,282.5,134.4,277.2,128,277.2z"/>
<path id="path8" inkscape:connector-curvature="0" inkscape:export-filename="C:\Users\suitedoalex\sites\blaze-logo-4.png" inkscape:export-xdpi="66.520226" inkscape:export-ydpi="66.520226" class="st0" d="
	M154.7,250.5c-6.5,0-11.7,5.2-11.7,11.7c0,6.5,5.2,11.7,11.7,11.7c6.5,0,11.7-5.2,11.7-11.7C166.4,255.7,161.2,250.5,154.7,250.5z"
	/>
<path id="path10" inkscape:connector-curvature="0" inkscape:export-filename="C:\Users\suitedoalex\sites\blaze-logo-4.png" inkscape:export-xdpi="66.520226" inkscape:export-ydpi="66.520226" class="st0" d="
	M89.5,262.2c0,6.5,5.2,11.7,11.7,11.7c6.5,0,11.7-5.2,11.7-11.7c0-6.5-5.2-11.7-11.7-11.7C94.7,250.5,89.5,255.7,89.5,262.2
	L89.5,262.2z"/>
<path id="path12" inkscape:connector-curvature="0" inkscape:export-filename="C:\Users\suitedoalex\sites\blaze-logo-4.png" inkscape:export-xdpi="66.520226" inkscape:export-ydpi="66.520226" class="st1" d="
	M290.2,240.6c-2.6,0-5.2,0.5-7.7,1.3c-2.5,0.9-4.7,2.3-6.7,4.1c-2,1.9-3.6,4.3-4.7,7.1c-1.2,2.9-1.8,6.2-1.8,10.1
	c0,4,0.6,7.4,1.8,10.2c1.2,2.8,2.8,5.1,4.7,6.9c1.9,1.8,4.1,3.2,6.6,4.1c2.5,0.9,5.1,1.3,7.7,1.3c2.9,0,5.6-0.5,8.1-1.6
	c2.5-1.1,4.8-2.6,6.7-4.6c1.9-2,3.4-4.3,4.5-7.1c1.1-2.8,1.7-5.9,1.7-9.4c0-3.4-0.6-6.5-1.7-9.4c-1.1-2.8-2.6-5.2-4.5-7.1
	c-1.9-1.9-4.2-3.4-6.7-4.4C295.8,241.1,293.1,240.6,290.2,240.6L290.2,240.6z M269.7,230.2c5.9-6.5,14-9.8,24.5-9.8
	c5.8,0,11.1,1.1,15.9,3.2c4.9,2.2,9.1,5.1,12.6,8.9c3.6,3.8,6.3,8.3,8.3,13.6c2,5.2,3,10.9,3,17.1c0,6.2-1,11.9-3,17.1
	c-1.9,5.3-4.7,9.8-8.1,13.6c-3.5,3.8-7.7,6.8-12.6,8.9c-4.9,2.2-10.3,3.2-16,3.2c-5.6,0-10.7-1-15.2-3c-4.5-2.1-8.2-5-11.1-8.9v9.9
	h-20.5V198.3h22.3V230.2z"/>
<path id="path14" inkscape:connector-curvature="0" inkscape:export-filename="C:\Users\suitedoalex\sites\blaze-logo-4.png" inkscape:export-xdpi="66.520226" inkscape:export-ydpi="66.520226" class="st1" d="
	M346.3,304.2h22.3V198.3h-22.3V304.2z"/>
<path id="path16" inkscape:connector-curvature="0" inkscape:export-filename="C:\Users\suitedoalex\sites\blaze-logo-4.png" inkscape:export-xdpi="66.520226" inkscape:export-ydpi="66.520226" class="st1" d="
	M418,289.8c4.9,0,9-1.5,12.3-4.5c3.4-3,5.1-6.9,5.1-11.7v-1h-17.5c-7.6,0-11.5,2.8-11.5,8.3c0,2.9,1.1,5.1,3.3,6.6
	S414.7,289.8,418,289.8z M422.5,220.4c5.2,0,10,0.7,14.2,2.3c4.3,1.5,8,3.7,11.1,6.6c3.1,2.9,5.5,6.6,7.2,10.9
	c1.8,4.4,2.6,9.5,2.6,15.3v48.7h-20.3v-7.9c-2.9,3.1-6.4,5.5-10.6,7.3c-4.3,1.8-9.1,2.6-14.5,2.6c-4.4,0-8.4-0.6-11.9-1.9
	c-3.5-1.3-6.5-3-9-5.1c-2.4-2.2-4.3-4.7-5.5-7.7c-1.3-3-1.9-6.2-1.9-9.8c0-7.5,2.8-13.4,8.4-17.6c5.6-4.2,13.1-6.3,22.7-6.3h20.5
	v-3.6c0-4.5-1.3-8-3.8-10.6c-2.5-2.5-6.4-3.8-11.6-3.8c-4.3,0-8.1,1-11.5,3c-3.3,2-6.8,4.8-10.1,8.3l-11.5-13.7
	C396.2,226,408.1,220.4,422.5,220.4L422.5,220.4z"/>
<path id="path18" inkscape:connector-curvature="0" inkscape:export-filename="C:\Users\suitedoalex\sites\blaze-logo-4.png" inkscape:export-xdpi="66.520226" inkscape:export-ydpi="66.520226" class="st1" d="
	M588.4,238.5c-4.8,0-9,1.4-12.6,4.4c-3.5,2.9-5.9,7-7.3,12.1h37.6c-0.2-5.3-2-9.4-5.4-12.2C597.2,239.9,593.1,238.5,588.4,238.5
	L588.4,238.5z M589.3,220.4c5.7,0,11,1,15.7,3c4.8,2,8.8,4.7,12.1,8.1c3.4,3.4,5.9,7.4,7.8,12.1c1.8,4.6,2.8,9.6,2.8,14.9
	c0,2.3-0.2,4.6-0.5,6.8c-0.3,2.2-0.7,4-1,5.5h-57.6c1.4,5.3,4.2,9.3,8.3,12.1c4.1,2.8,9.1,4.1,15.1,4.1c4.4,0,8.5-0.8,12.1-2.2
	c3.7-1.5,7.3-3.5,10.7-6l9.1,15.2c-4.6,3.9-9.6,6.9-15,9c-5.4,2.2-11.3,3.2-17.6,3.2c-6.5,0-12.5-1.1-18-3.3
	c-5.5-2.2-10.3-5.3-14.2-9.1c-4-3.9-7.1-8.4-9.4-13.6c-2.3-5.2-3.4-10.8-3.4-16.9c0-6.1,1.1-11.7,3.3-16.9c2.2-5.2,5.3-9.7,9.1-13.6
	c3.9-3.9,8.5-6.9,13.7-9.1C577.5,221.5,583.2,220.4,589.3,220.4L589.3,220.4z"/>
<path id="path20" inkscape:connector-curvature="0" inkscape:export-filename="C:\Users\suitedoalex\sites\blaze-logo-4.png" inkscape:export-xdpi="66.520226" inkscape:export-ydpi="66.520226" class="st1" d="
	M536.3,222.3h-65v18.9h35.4l-35.4,47.6v15.4h64.9v-18.9h-37.8l37.9-49.6V222.3z"/>
</svg>
